<?xml version="1.0" encoding="UTF-8" standalone="no"?>
<!DOCTYPE svg PUBLIC "-//W3C//DTD SVG 1.1//EN"
 "http://www.w3.org/Graphics/SVG/1.1/DTD/svg11.dtd">
<!-- Generated by graphviz version 2.36.0 (20140111.2315)
 -->
<!-- Title: models_diagram Pages: 1 -->
<svg width="348pt" height="720pt"
 viewBox="0.00 0.00 348.00 720.00" xmlns="http://www.w3.org/2000/svg" xmlns:xlink="http://www.w3.org/1999/xlink">
<g id="graph0" class="graph" transform="scale(1 1) rotate(0) translate(4 716)">
<title>models_diagram</title>
<polygon fill="white" stroke="none" points="-4,4 -4,-716 344,-716 344,4 -4,4"/>
<!-- Book -->
<g id="node1" class="node"><title>Book</title>
<path fill="none" stroke="black" d="M12.4946,-361C12.4946,-361 121.505,-361 121.505,-361 127.505,-361 133.505,-367 133.505,-373 133.505,-373 133.505,-519 133.505,-519 133.505,-525 127.505,-531 121.505,-531 121.505,-531 12.4946,-531 12.4946,-531 6.49463,-531 0.494629,-525 0.494629,-519 0.494629,-519 0.494629,-373 0.494629,-373 0.494629,-367 6.49463,-361 12.4946,-361"/>
<text text-anchor="middle" x="67" y="-515.8" font-family="Times,serif" font-size="14.00">Book</text>
<polyline fill="none" stroke="black" points="0.494629,-509 133.505,-509 "/>
<text text-anchor="start" x="8.49463" y="-493.8" font-family="Times,serif" font-size="14.00">id :integer</text>
<text text-anchor="start" x="8.49463" y="-479.8" font-family="Times,serif" font-size="14.00">poll_id :integer</text>
<text text-anchor="start" x="8.49463" y="-465.8" font-family="Times,serif" font-size="14.00">title :string</text>
<text text-anchor="start" x="8.49463" y="-451.8" font-family="Times,serif" font-size="14.00">author :string</text>
<text text-anchor="start" x="8.49463" y="-437.8" font-family="Times,serif" font-size="14.00">img_url :string</text>
<text text-anchor="start" x="8.49463" y="-423.8" font-family="Times,serif" font-size="14.00">book_id :string</text>
<text text-anchor="start" x="8.49463" y="-409.8" font-family="Times,serif" font-size="14.00">created_at :datetime</text>
<text text-anchor="start" x="8.49463" y="-395.8" font-family="Times,serif" font-size="14.00">updated_at :datetime</text>
<text text-anchor="start" x="8.49463" y="-381.8" font-family="Times,serif" font-size="14.00">avg_rating :string</text>
<text text-anchor="start" x="8.49463" y="-367.8" font-family="Times,serif" font-size="14.00">link :string</text>
</g>
<!-- BookPoll -->
<g id="node2" class="node"><title>BookPoll</title>
<path fill="none" stroke="black" d="M11.4946,-1C11.4946,-1 120.505,-1 120.505,-1 126.505,-1 132.505,-7 132.505,-13 132.505,-13 132.505,-103 132.505,-103 132.505,-109 126.505,-115 120.505,-115 120.505,-115 11.4946,-115 11.4946,-115 5.49463,-115 -0.505371,-109 -0.505371,-103 -0.505371,-103 -0.505371,-13 -0.505371,-13 -0.505371,-7 5.49463,-1 11.4946,-1"/>
<text text-anchor="middle" x="66" y="-99.8" font-family="Times,serif" font-size="14.00">BookPoll</text>
<polyline fill="none" stroke="black" points="-0.505371,-93 132.505,-93 "/>
<text text-anchor="start" x="7.49463" y="-77.8" font-family="Times,serif" font-size="14.00">id :integer</text>
<text text-anchor="start" x="7.49463" y="-63.8" font-family="Times,serif" font-size="14.00">book_id :integer</text>
<text text-anchor="start" x="7.49463" y="-49.8" font-family="Times,serif" font-size="14.00">poll_id :integer</text>
<text text-anchor="start" x="7.49463" y="-35.8" font-family="Times,serif" font-size="14.00">votecount :integer</text>
<text text-anchor="start" x="7.49463" y="-21.8" font-family="Times,serif" font-size="14.00">created_at :datetime</text>
<text text-anchor="start" x="7.49463" y="-7.8" font-family="Times,serif" font-size="14.00">updated_at :datetime</text>
</g>
<!-- Book&#45;&gt;BookPoll -->
<g id="edge1" class="edge"><title>Book&#45;&gt;BookPoll</title>
<path fill="none" stroke="#5b52f9" d="M66.76,-352.341C66.5784,-282.275 66.3336,-187.768 66.1715,-125.183"/>
<ellipse fill="none" stroke="#5b52f9" cx="66.7714" cy="-356.768" rx="4" ry="4"/>
<polygon fill="#5b52f9" stroke="#5b52f9" points="66.1712,-125.037 70.6452,-115.026 66.1582,-120.037 66.1452,-115.037 66.1452,-115.037 66.1452,-115.037 66.1582,-120.037 61.6452,-115.049 66.1712,-125.037 66.1712,-125.037"/>
</g>
<!-- Poll -->
<g id="node5" class="node"><title>Poll</title>
<path fill="none" stroke="black" d="M105.916,-153C105.916,-153 218.084,-153 218.084,-153 224.084,-153 230.084,-159 230.084,-165 230.084,-165 230.084,-311 230.084,-311 230.084,-317 224.084,-323 218.084,-323 218.084,-323 105.916,-323 105.916,-323 99.9155,-323 93.9155,-317 93.9155,-311 93.9155,-311 93.9155,-165 93.9155,-165 93.9155,-159 99.9155,-153 105.916,-153"/>
<text text-anchor="middle" x="162" y="-307.8" font-family="Times,serif" font-size="14.00">Poll</text>
<polyline fill="none" stroke="black" points="93.9155,-301 230.084,-301 "/>
<text text-anchor="start" x="101.916" y="-285.8" font-family="Times,serif" font-size="14.00">id :integer</text>
<text text-anchor="start" x="101.916" y="-271.8" font-family="Times,serif" font-size="14.00">name :string</text>
<text text-anchor="start" x="101.916" y="-257.8" font-family="Times,serif" font-size="14.00">url :string</text>
<text text-anchor="start" x="101.916" y="-243.8" font-family="Times,serif" font-size="14.00">start_date :datetime</text>
<text text-anchor="start" x="101.916" y="-229.8" font-family="Times,serif" font-size="14.00">end_date :datetime</text>
<text text-anchor="start" x="101.916" y="-215.8" font-family="Times,serif" font-size="14.00">book_list :text</text>
<text text-anchor="start" x="101.916" y="-201.8" font-family="Times,serif" font-size="14.00">winning_book :string</text>
<text text-anchor="start" x="101.916" y="-187.8" font-family="Times,serif" font-size="14.00">user_id :integer</text>
<text text-anchor="start" x="101.916" y="-173.8" font-family="Times,serif" font-size="14.00">created_at :datetime</text>
<text text-anchor="start" x="101.916" y="-159.8" font-family="Times,serif" font-size="14.00">updated_at :datetime</text>
</g>
<!-- Book&#45;&gt;Poll -->
<g id="edge2" class="edge"><title>Book&#45;&gt;Poll</title>
<path fill="none" stroke="#698b91" d="M109.978,-351.805C112.937,-345.389 115.919,-338.923 118.879,-332.505"/>
<polygon fill="#698b91" stroke="#698b91" points="109.965,-351.834 101.691,-359.03 107.871,-356.374 105.777,-360.915 105.777,-360.915 105.777,-360.915 107.871,-356.374 109.864,-362.799 109.965,-351.834 109.965,-351.834"/>
<polygon fill="#698b91" stroke="#698b91" points="119.005,-332.231 127.279,-325.035 121.099,-327.691 123.193,-323.15 123.193,-323.15 123.193,-323.15 121.099,-327.691 119.106,-321.266 119.005,-332.231 119.005,-332.231"/>
</g>
<!-- Favorite -->
<g id="node3" class="node"><title>Favorite</title>
<path fill="none" stroke="black" d="M219.495,-590C219.495,-590 328.505,-590 328.505,-590 334.505,-590 340.505,-596 340.505,-602 340.505,-602 340.505,-678 340.505,-678 340.505,-684 334.505,-690 328.505,-690 328.505,-690 219.495,-690 219.495,-690 213.495,-690 207.495,-684 207.495,-678 207.495,-678 207.495,-602 207.495,-602 207.495,-596 213.495,-590 219.495,-590"/>
<text text-anchor="middle" x="274" y="-674.8" font-family="Times,serif" font-size="14.00">Favorite</text>
<polyline fill="none" stroke="black" points="207.495,-668 340.505,-668 "/>
<text text-anchor="start" x="215.495" y="-652.8" font-family="Times,serif" font-size="14.00">id :integer</text>
<text text-anchor="start" x="215.495" y="-638.8" font-family="Times,serif" font-size="14.00">user_id :integer</text>
<text text-anchor="start" x="215.495" y="-624.8" font-family="Times,serif" font-size="14.00">book_id :integer</text>
<text text-anchor="start" x="215.495" y="-610.8" font-family="Times,serif" font-size="14.00">created_at :datetime</text>
<text text-anchor="start" x="215.495" y="-596.8" font-family="Times,serif" font-size="14.00">updated_at :datetime</text>
</g>
<!-- Guest -->
<g id="node4" class="node"><title>Guest</title>
<path fill="none" stroke="black" d="M162.495,-8C162.495,-8 271.505,-8 271.505,-8 277.505,-8 283.505,-14 283.505,-20 283.505,-20 283.505,-96 283.505,-96 283.505,-102 277.505,-108 271.505,-108 271.505,-108 162.495,-108 162.495,-108 156.495,-108 150.495,-102 150.495,-96 150.495,-96 150.495,-20 150.495,-20 150.495,-14 156.495,-8 162.495,-8"/>
<text text-anchor="middle" x="217" y="-92.8" font-family="Times,serif" font-size="14.00">Guest</text>
<polyline fill="none" stroke="black" points="150.495,-86 283.505,-86 "/>
<text text-anchor="start" x="158.495" y="-70.8" font-family="Times,serif" font-size="14.00">id :integer</text>
<text text-anchor="start" x="158.495" y="-56.8" font-family="Times,serif" font-size="14.00">name :string</text>
<text text-anchor="start" x="158.495" y="-42.8" font-family="Times,serif" font-size="14.00">created_at :datetime</text>
<text text-anchor="start" x="158.495" y="-28.8" font-family="Times,serif" font-size="14.00">updated_at :datetime</text>
<text text-anchor="start" x="158.495" y="-14.8" font-family="Times,serif" font-size="14.00">poll_id :integer</text>
</g>
<!-- Poll&#45;&gt;BookPoll -->
<g id="edge3" class="edge"><title>Poll&#45;&gt;BookPoll</title>
<path fill="none" stroke="#e9765d" d="M112.762,-145.704C108.791,-138.342 104.832,-131.001 100.993,-123.883"/>
<ellipse fill="none" stroke="#e9765d" cx="114.772" cy="-149.431" rx="4.00002" ry="4.00002"/>
<polygon fill="#e9765d" stroke="#e9765d" points="100.95,-123.803 100.164,-112.865 98.5763,-119.402 96.2029,-115.001 96.2029,-115.001 96.2029,-115.001 98.5763,-119.402 92.2422,-117.137 100.95,-123.803 100.95,-123.803"/>
</g>
<!-- Poll&#45;&gt;Guest -->
<g id="edge4" class="edge"><title>Poll&#45;&gt;Guest</title>
<path fill="none" stroke="#27a18a" d="M190.41,-145.053C193.258,-135.838 196.092,-126.664 198.792,-117.929"/>
<ellipse fill="none" stroke="#27a18a" cx="189.151" cy="-149.13" rx="4.00001" ry="4.00001"/>
<polygon fill="#27a18a" stroke="#27a18a" points="198.823,-117.828 206.074,-109.602 200.299,-113.051 201.775,-108.274 201.775,-108.274 201.775,-108.274 200.299,-113.051 197.476,-106.945 198.823,-117.828 198.823,-117.828"/>
</g>
<!-- User -->
<g id="node6" class="node"><title>User</title>
<path fill="none" stroke="black" d="M50.936,-569C50.936,-569 177.064,-569 177.064,-569 183.064,-569 189.064,-575 189.064,-581 189.064,-581 189.064,-699 189.064,-699 189.064,-705 183.064,-711 177.064,-711 177.064,-711 50.936,-711 50.936,-711 44.936,-711 38.936,-705 38.936,-699 38.936,-699 38.936,-581 38.936,-581 38.936,-575 44.936,-569 50.936,-569"/>
<text text-anchor="middle" x="114" y="-695.8" font-family="Times,serif" font-size="14.00">User</text>
<polyline fill="none" stroke="black" points="38.936,-689 189.064,-689 "/>
<text text-anchor="start" x="46.936" y="-673.8" font-family="Times,serif" font-size="14.00">id :integer</text>
<text text-anchor="start" x="46.936" y="-659.8" font-family="Times,serif" font-size="14.00">email :string</text>
<text text-anchor="start" x="46.936" y="-645.8" font-family="Times,serif" font-size="14.00">password_digest :string</text>
<text text-anchor="start" x="46.936" y="-631.8" font-family="Times,serif" font-size="14.00">remember_token :string</text>
<text text-anchor="start" x="46.936" y="-617.8" font-family="Times,serif" font-size="14.00">created_at :datetime</text>
<text text-anchor="start" x="46.936" y="-603.8" font-family="Times,serif" font-size="14.00">updated_at :datetime</text>
<text text-anchor="start" x="46.936" y="-589.8" font-family="Times,serif" font-size="14.00">name :string</text>
<text text-anchor="start" x="46.936" y="-575.8" font-family="Times,serif" font-size="14.00">booklist :text</text>
</g>
<!-- User&#45;&gt;Book -->
<g id="edge6" class="edge"><title>User&#45;&gt;Book</title>
<path fill="none" stroke="#90f09f" d="M94.923,-561.068C93.3101,-554.48 91.6684,-547.773 90.0298,-541.079"/>
<ellipse fill="none" stroke="#90f09f" cx="95.8813" cy="-564.983" rx="4.00001" ry="4.00001"/>
<polygon fill="#90f09f" stroke="#90f09f" points="90.0127,-541.009 92.0059,-530.226 88.8238,-536.152 87.6349,-531.296 87.6349,-531.296 87.6349,-531.296 88.8238,-536.152 83.264,-532.366 90.0127,-541.009 90.0127,-541.009"/>
</g>
<!-- User&#45;&gt;Poll -->
<g id="edge5" class="edge"><title>User&#45;&gt;Poll</title>
<path fill="none" stroke="#db1b97" d="M136.256,-560.829C138.47,-551.177 140.463,-541.401 142,-532 152.767,-466.138 157.753,-391.029 160.054,-333.347"/>
<ellipse fill="none" stroke="#db1b97" cx="135.269" cy="-565.004" rx="4.00001" ry="4.00001"/>
<polygon fill="#db1b97" stroke="#db1b97" points="160.061,-333.144 164.936,-323.321 160.25,-328.148 160.44,-323.151 160.44,-323.151 160.44,-323.151 160.25,-328.148 155.943,-322.981 160.061,-333.144 160.061,-333.144"/>
</g>
</g>
</svg>
